# xmcd
#
# Track frame offsets:
#	150
#	12308
#	23702
#	34213
#	46832
#	58916
#	69748
#	80600
#	94498
#	104203
#	115562
#	130148
#
# Disc length: 1951 seconds
#
# Revision: 1
# Processed by: cddbd v1.5.2PL0 Copyright (c) Steve Scherf et al.
# Submitted via: audiograbber 1.83.01
#
DISCID=a6079d0c
DTITLE=Johnny Paycheck - Country Soul
DYEAR=1968
DGENRE=Country
TTITLE0=There Goes My Everything
TTITLE1=Release Me
TTITLE2=Together Again
TTITLE3=Touch My Heart
TTITLE4=All The Time
TTITLE5=Misty Blue
TTITLE6=Apartment No 9
TTITLE7=Almost Persuaded
TTITLE8=It's Such A Pretty World Today
TTITLE9=Make The World Go Away
TTITLE10=Green, Green Grass Of Home
TTITLE11=Danny Boy
EXTD=
EXTT0=
EXTT1=
EXTT2=
EXTT3=
EXTT4=
EXTT5=
EXTT6=
EXTT7=
EXTT8=
EXTT9=
EXTT10=
EXTT11=
PLAYORDER=
